<svg xmlns="http://www.w3.org/2000/svg" viewBox="0 0 32 32">
  <defs>
    <linearGradient id="grad" x1="0%" y1="0%" x2="100%" y2="100%">
      <stop offset="0%" style="stop-color:#3b82f6;stop-opacity:1" />
      <stop offset="100%" style="stop-color:#1d4ed8;stop-opacity:1" />
    </linearGradient>
  </defs>
  <rect width="32" height="32" rx="6" fill="url(#grad)"/>
  <path d="M22 23H10a2 2 0 01-2-2V11a2 2 0 012-2h8a2 2 0 012 2v1m2 11a2 2 0 01-2-2V12m2 11a2 2 0 002-2V13a2 2 0 00-2-2h-2m-4-3h-4m-2 8h6m-6-4h6v4h-6v-4z" stroke="#fff" stroke-width="1.5" stroke-linecap="round" stroke-linejoin="round" fill="none"/>
</svg>
